<?xml version="1.0" encoding="UTF-8"?>
<!-- Generated by jsxcad -->
<!DOCTYPE svg PUBLIC "-//W3C//DTD SVG 1.1 Tiny//EN" "http://www.w3.org/Graphics/SVG/1.1/DTD/svg11-tiny.dtd">
<svg baseProfile="tiny" height="114.00000mm" width="59.97410mm" viewBox="-0.00094 86.00000 59.97410 114.00000" version="1.1" stroke="black" stroke-width=".1" fill="none" xmlns="http://www.w3.org/2000/svg">
<path fill="#000000" stroke="#000000" d="M55.16414 146.00000 L52.23611 146.00000 L52.23611 123.00000 L52.23611 100.00000 L49.60635 100.00000 L47.48611 100.00000 L47.48611 145.65681 L47.48611 146.00000 L47.48575 146.00000 L47.47597 146.00000 L47.26718 146.00000 L31.34602 146.00000 L28.64815 146.00000 L26.65219 146.00000 L16.51500 146.00000 L14.04824 146.00000 L12.48867 146.00000 L12.48611 146.00000 L12.48611 122.08662 L12.48611 100.00000 L10.36587 100.00000 L7.73611 100.00000 L7.73611 123.00000 L7.73611 146.00000 L4.80808 146.00000 L-0.00094 146.00000 L-0.00094 132.23318 L-0.00094 130.36051 L-0.00094 129.49059 L-0.00094 126.64699 L-0.00094 126.64364 L-0.00094 126.64223 L-0.00094 125.25384 L-0.00094 86.00000 L39.23596 86.00000 L59.97316 86.00000 L59.97316 96.27214 L59.97316 96.27516 L59.97316 96.27993 L59.97316 100.25594 L59.97316 101.14951 L59.97316 130.36051 L59.97316 132.23318 L59.97316 146.00000 z M39.98611 100.00000 L36.58988 94.11321 L34.99166 91.34295 L28.18411 91.34295 L24.98056 91.34295 L21.58434 97.22974 L19.98611 100.00000 L23.38234 105.88679 L24.98056 108.65705 L31.78811 108.65705 L34.99166 108.65705 L38.38789 102.77026 z"/>
<path fill="#000000" stroke="#000000" d="M47.48611 100.00000 L49.60635 100.00000 L52.23611 100.00000 L52.23611 150.00000 L52.23611 200.00000 L49.60635 200.00000 L47.48611 200.00000 L47.48611 146.40288 z"/>
<path fill="#000000" stroke="#000000" d="M7.73611 100.00000 L10.36587 100.00000 L12.48611 100.00000 L12.48611 153.59712 L12.48611 200.00000 L10.36587 200.00000 L7.73611 200.00000 L7.73611 150.00000 z"/>
<path fill="#000000" stroke="#000000" d="M38.38789 102.77026 L34.99166 108.65705 L31.78811 108.65705 L24.98056 108.65705 L23.38234 105.88679 L19.98611 100.00000 L21.58434 97.22974 L24.98056 91.34295 L28.18411 91.34295 L34.99166 91.34295 L36.58988 94.11321 L39.98611 100.00000 z"/>
</svg>