<?xml version="1.0" encoding="UTF-8"?>
<!-- Generated by jsxcad -->
<!DOCTYPE svg PUBLIC "-//W3C//DTD SVG 1.1 Tiny//EN" "http://www.w3.org/Graphics/SVG/1.1/DTD/svg11-tiny.dtd">
<svg baseProfile="tiny" height="113.1167512690356mm" width="1030.0000000000005mm" viewBox="-30.000000000000014 -75.75972927241969 1030.0000000000005 113.1167512690356" version="1.1" stroke="black" stroke-width=".1" fill="none" xmlns="http://www.w3.org/2000/svg">
<path fill="#bababa" stroke="#bababa" d="M0 34.76480541455163 L0 33.992657239860705 L70 33.992657239860705 L70 34.710755042323264 L70 34.76480541455163 z"/>
<path fill="#bababa" stroke="#bababa" d="M70 35.00435982319207 L0 35.00435982319207 L0 36.321565153740956 L70 36.321565153740956 L70 35.09656419633049 z"/>
<path fill="#bababa" stroke="#bababa" d="M70 28.43607858150326 L70 28.892936781256907 L70 28.92732395758245 L0 28.92732395758245 L0 28.43607858150326 z"/>
<path fill="#bababa" stroke="#bababa" d="M70 33.92920044162616 L70 33.99265723986071 L0 33.99265723986071 L0 33.08613155079576 L70 33.08613155079576 z"/>
<path fill="#bababa" stroke="#bababa" d="M70 31.277251543920936 L0 31.277251543920936 L0 31.378749895896505 L70 31.378749895896505 L70 31.284356428559228 z"/>
<path fill="#bababa" stroke="#bababa" d="M70 33.086131550795756 L0 33.086131550795756 L0 32.22477687788407 L70 32.22477687788407 L70 33.02583672369194 z"/>
<path fill="#bababa" stroke="#bababa" d="M70 28.92732395758245 L70 29.749613184645 L70 29.811505922165846 L0 29.811505922165846 L0 28.92732395758245 z"/>
<path fill="#bababa" stroke="#bababa" d="M70 31.0009239932318 L70 31.09045008460239 L0 31.09045008460239 L0 29.811505922165818 L70 29.811505922165818 z"/>
<path fill="#bababa" stroke="#bababa" d="M0 31.863587140439947 L0 33.14253130287649 L70 33.14253130287649 L70 31.953113231810516 L70 31.863587140439947 z"/>
<path fill="#bababa" stroke="#bababa" d="M70 31.378749895896505 L0 31.378749895896505 L0 31.86358714043995 L70 31.86358714043995 L70 31.412688503014543 z"/>
<path fill="#bababa" stroke="#bababa" d="M70 31.579195077917625 L0 31.579195077917625 L0 31.27725154392094 L70 31.27725154392094 L70 31.558059030537862 z"/>
<path fill="#bababa" stroke="#bababa" d="M70 35.00435982319207 L70 33.6426165791689 L70 33.54011977585533 L0 33.54011977585533 L0 35.00435982319207 z"/>
<path fill="#bababa" stroke="#bababa" d="M70 28.436078581503264 L0 28.436078581503264 L0 28.381419101387745 L70 28.381419101387745 L70 28.432252417895178 z"/>
<path fill="#bababa" stroke="#bababa" d="M70 28.381419101387753 L0 28.381419101387753 L0 28.768202251913348 L70 28.768202251913348 L70 28.408493921924546 z"/>
<path fill="#bababa" stroke="#bababa" d="M0 30.692456501297837 L0 32.05894916564824 L70 32.05894916564824 L70 30.788110987802366 L70 30.692456501297837 z"/>
<path fill="#bababa" stroke="#bababa" d="M70 28.823772339974433 L70 28.768202251913355 L0 28.768202251913355 L0 29.562060652785966 L70 29.562060652785966 z"/>
<path fill="#bababa" stroke="#bababa" d="M70 29.641188362181783 L70 29.562060652785956 L0 29.562060652785956 L0 30.692456501297837 L70 30.692456501297837 z"/>
<path fill="#bababa" stroke="#bababa" d="M70 32.162631108362724 L70 32.05894916564823 L0 32.05894916564823 L0 33.54011977585533 L70 33.54011977585533 z"/>
<path fill="#bababa" stroke="#bababa" d="M70 57.30706549737855 L0 57.30706549737855 L0 57.60900903137523 L70 57.60900903137523 L70 57.32820154475832 z"/>
<path fill="#bababa" stroke="#bababa" d="M0 57.60900903137522 L0 57.50751067939966 L70 57.50751067939966 L70 57.601904146736935 L70 57.60900903137522 z"/>
<path fill="#bababa" stroke="#bababa" d="M70 60.95738094832802 L70 60.70066791774867 L70 60.68134543157603 L0 60.68134543157603 L0 60.95738094832802 z"/>
<path fill="#bababa" stroke="#bababa" d="M0 60.95738094832802 L0 60.789443389343354 L70 60.789443389343354 L70 60.9456253191991 L70 60.95738094832802 z"/>
<path fill="#bababa" stroke="#bababa" d="M70 57.50751067939966 L0 57.50751067939966 L0 57.022673434856195 L70 57.022673434856195 L70 57.4735720722816 z"/>
<path fill="#bababa" stroke="#bababa" d="M70 60.124345116731654 L70 60.19245474371968 L0 60.19245474371968 L0 59.21946007246211 L70 59.21946007246211 z"/>
<path fill="#bababa" stroke="#bababa" d="M70 60.78944338934336 L0 60.78944338934336 L0 60.19245474371967 L70 60.19245474371967 L70 60.7476541841497 z"/>
<path fill="#bababa" stroke="#bababa" d="M70 60.03454751989514 L70 59.98586380611269 L0 59.98586380611269 L0 60.68134543157603 L70 60.68134543157603 z"/>
<path fill="#bababa" stroke="#bababa" d="M70 54.14540190715635 L70 54.17764973881989 L70 54.31215972927244 L70 55.58153274060065 L70 55.68720135363792 L70 56.92919038917092 L70 57.02267343485619 L0 57.02267343485619 L0 55.68720135363792 L0 54.17764973881989 L0 36.043749576988176 L0 34.76480541455162 L70 34.76480541455162 L70 35.954223485617604 L70 36.043749576988176 L70 53.13637901861254 L70 53.67090397576109 L70 53.721383289936995 z"/>
<path fill="#bababa" stroke="#bababa" d="M70 58.45500020570629 L70 55.18579784764413 L70 50.17998678171454 L70 49.83381469005857 L70 48.75121203574589 L70 37.97806605940696 L70 36.32156515374095 L0 36.32156515374095 L0 58.9327326664313 L0 59.9858638061127 L70 59.9858638061127 L70 59.00645184620901 L70 58.9327326664313 L70 58.68693152774993 L70 58.486997889655484 z"/>
<path fill="#bababa" stroke="#bababa" d="M70 5.792423759168239 L70 6.249281958921881 L70 6.283669135247421 L0 6.283669135247421 L0 5.792423759168239 z"/>
<path fill="#bababa" stroke="#bababa" d="M70 28.19623688663282 L70 29.001014241913754 L70 29.723310378050634 L70 29.77901861252117 L0 29.77901861252117 L0 7.167851099830821 L70 7.167851099830821 L70 12.173583667240623 L70 16.614041284795736 L70 16.982588688438092 L70 22.18270447795633 L70 22.61431716181414 L70 26.94980169464542 L70 27.299011016942718 z"/>
<path fill="#bababa" stroke="#bababa" d="M0 7.167851099830796 L0 6.283669135247414 L70 6.283669135247414 L70 7.105958362309966 L70 7.167851099830796 z"/>
<path fill="#bababa" stroke="#bababa" d="M0 5.737764279052725 L0 6.124547429578325 L70 6.124547429578325 L70 5.764839099589521 L70 5.737764279052725 z"/>
<path fill="#bababa" stroke="#bababa" d="M70 8.735767356476964 L70 8.730491829930404 L0 8.730491829930404 L0 8.805856494881276 L70 8.805856494881276 z"/>
<path fill="#bababa" stroke="#bababa" d="M70 8.70618750099744 L70 8.70435814290571 L0 8.70435814290571 L0 8.730491829930404 L70 8.730491829930404 z"/>
<path fill="#bababa" stroke="#bababa" d="M70 8.996626940395208 L70 9.006301676902398 L0 9.006301676902398 L0 8.868091155371165 L70 8.868091155371165 z"/>
<path fill="#bababa" stroke="#bababa" d="M0 6.918405830450929 L0 8.048801678962814 L70 8.048801678962814 L70 6.997533539846763 L70 6.918405830450929 z"/>
<path fill="#bababa" stroke="#bababa" d="M70 10.741718694853983 L70 10.758916155235855 L0 10.758916155235855 L0 10.513238149780536 L70 10.513238149780536 z"/>
<path fill="#bababa" stroke="#bababa" d="M0 10.89646495352031 L0 12.360705000857044 L70 12.360705000857044 L70 10.998961756833882 L70 10.89646495352031 z"/>
<path fill="#bababa" stroke="#bababa" d="M70 11.570568133818131 L70 12.148417941956131 L70 12.191912013536408 L0 12.191912013536408 L0 11.570568133818131 z"/>
<path fill="#bababa" stroke="#bababa" d="M70 15.342540591543466 L70 15.483420063683184 L0 15.483420063683184 L0 13.470856175972958 L70 13.470856175972958 z"/>
<path fill="#bababa" stroke="#bababa" d="M70 33.1425313028765 L0 33.1425313028765 L0 31.090450084602395 L70 31.090450084602395 L70 32.99888561759732 z"/>
<path fill="#bababa" stroke="#bababa" d="M70 8.048801678962814 L0 8.048801678962814 L0 9.415294343313212 L70 9.415294343313212 L70 8.144456165467343 z"/>
<path fill="#bababa" stroke="#bababa" d="M70 13.80429601266533 L70 13.677910331405933 L0 13.677910331405933 L0 15.483420063683164 L70 15.483420063683164 z"/>
<path fill="#bababa" stroke="#bababa" d="M70 12.360705000857047 L0 12.360705000857047 L0 13.677910331405936 L70 13.677910331405936 L70 12.452909373995467 z"/>
<path fill="#bababa" stroke="#bababa" d="M70 12.19191201353638 L70 13.381330084602366 L70 13.470856175972953 L0 13.470856175972953 L0 12.19191201353638 z"/>
<path fill="#bababa" stroke="#bababa" d="M70 9.415294343313214 L0 9.415294343313214 L0 10.89646495352031 L70 10.89646495352031 L70 9.51897628602771 z"/>
<path fill="#bababa" stroke="#bababa" d="M70 11.570568133818131 L0 11.570568133818131 L0 11.419763838845485 L70 11.419763838845485 L70 11.560011833170046 z"/>
<path fill="#bababa" stroke="#bababa" d="M70 11.419763838845483 L0 11.419763838845483 L0 10.758916155235854 L70 10.758916155235854 L70 11.373504500992809 z"/>
<path fill="#bababa" stroke="#bababa" d="M70 10.513238149780538 L0 10.513238149780538 L0 9.651883476868848 L70 9.651883476868848 L70 10.452943322676719 z"/>
<path fill="#bababa" stroke="#bababa" d="M70 9.006301676902394 L0 9.006301676902394 L0 9.006301676902392 L70 9.006301676902392 z"/>
<path fill="#bababa" stroke="#bababa" d="M70 9.65188347686885 L0 9.65188347686885 L0 9.006301676902394 L70 9.006301676902394 L70 9.606692750871197 z"/>
<path fill="#bababa" stroke="#bababa" d="M70 32.224776877884075 L0 32.224776877884075 L0 31.579195077917614 L70 31.579195077917614 L70 32.17958615188642 z"/>
<path fill="#bababa" stroke="#bababa" d="M70 6.124547429578332 L0 6.124547429578332 L0 6.91840583045094 L70 6.91840583045094 L70 6.180117517639407 z"/>
<path fill="#bababa" stroke="#bababa" d="M70 9.006301676902398 L0 9.006301676902398 z"/>
<path fill="#bababa" stroke="#bababa" d="M70 8.868091155371163 L0 8.868091155371163 L0 8.70435814290572 L70 8.70435814290572 L70 8.856629844498576 z"/>
<path fill="#bababa" stroke="#bababa" d="M70 8.9647253245176 L70 8.94019006748158 L0 8.94019006748158 L0 9.29069373942473 L70 9.29069373942473 z"/>
<path fill="#bababa" stroke="#bababa" d="M70 8.805856494881265 L0 8.805856494881265 L0 8.940190067481575 L70 8.940190067481575 L70 8.815259844963293 z"/>
<path fill="#bababa" stroke="#bababa" d="M70 5.79242375916824 L0 5.79242375916824 L0 5.737764279052723 L70 5.737764279052723 L70 5.788597595560153 z"/>
<path fill="#bababa" stroke="#bababa" d="M70 56.66148369741208 L70 53.858228561713005 L70 53.64723086332705 L70 37.710111533040724 L70 36.26908390843673 L70 34.94248785693073 L70 34.73417209636331 L70 34.133781022394516 L70 34.08859029639686 L0 34.08859029639686 L0 34.73417209636331 L0 37.710111533040724 L0 53.64723086332705 L0 56.66148369741208 L0 57.307065497378545 L70 57.307065497378545 L70 56.70667442340974 z"/>
<path fill="#bababa" stroke="#bababa" d="M70 35.313259399693706 L70 36.48742704059675 L70 36.57580525012708 L0 36.57580525012708 L0 35.313259399693706 z"/>
<path fill="#bababa" stroke="#bababa" d="M70 35.313259399693706 L0 35.313259399693706 L0 33.87334510948671 L70 33.87334510948671 L70 35.21246539937922 z"/>
<path fill="#bababa" stroke="#bababa" d="M70 32.28555488758231 L70 32.38400508315078 L0 32.38400508315078 L0 30.977573717886898 L70 30.977573717886898 z"/>
<path fill="#bababa" stroke="#bababa" d="M70 28.683785555192827 L70 11.944679526226752 L70 10.569637901861249 L70 9.380219830795268 L70 9.290693739424716 L0 9.290693739424716 L0 10.569637901861249 L0 28.683785555192827 L0 30.21308967851101 L0 31.548561759729278 L70 31.548561759729278 L70 30.3065727241963 L70 30.21308967851101 L70 28.790836843825094 z"/>
<path fill="#bababa" stroke="#bababa" d="M70 30.9775737178869 L0 30.9775737178869 L0 29.779018612521174 L70 29.779018612521174 L70 30.893674860511304 z"/>
<path fill="#bababa" stroke="#bababa" d="M0 31.5485617597293 L0 32.32070993442022 L70 32.32070993442022 L70 31.602612131957667 L70 31.5485617597293 z"/>
<path fill="#bababa" stroke="#bababa" d="M0 33.22723562348517 L70 33.22723562348517 z"/>
<path fill="#bababa" stroke="#bababa" d="M70 32.32070993442023 L0 32.32070993442023 L0 33.22723562348517 L70 33.22723562348517 L70 32.38416673265477 z"/>
<path fill="#bababa" stroke="#bababa" d="M70 33.7690913076432 L70 33.87334510948671 L0 33.87334510948671 L0 32.38400508315078 L70 32.38400508315078 z"/>
<path fill="#bababa" stroke="#bababa" d="M0 33.22723562348517 L0 33.74216054116437 L70 33.74216054116437 L70 33.263280367722714 L70 33.22723562348517 z"/>
<path fill="#bababa" stroke="#bababa" d="M70 33.22723562348517 L0 33.22723562348517 z"/>
<path fill="#bababa" stroke="#bababa" d="M70 33.74216054116437 L0 33.74216054116437 L0 34.08859029639686 L70 34.08859029639686 L70 33.76641062403064 z"/>
<path fill="#bababa" stroke="#bababa" d="M0 58.93273266643131 L0 36.32156515374096 L0 35.00435982319207 L0 33.54011977585533 L0 32.05894916564824 L0 30.69245650129784 L0 29.562060652785956 L0 28.768202251913344 L0 28.38141910138775 L0 28.436078581503264 L0 28.927323957582452 L0 29.81150592216585 L0 31.0904500846024 L0 33.142531302876506 L0 31.86358714043996 L0 31.378749895896508 L0 31.27725154392094 L0 31.57919507791762 L0 32.224776877884075 L0 33.08613155079576 L0 33.99265723986071 L0 34.76480541455163 L0 36.04374957698818 L0 54.177649738819895 L0 55.68720135363793 L0 57.0226734348562 L0 57.50751067939966 L0 57.60900903137522 L0 57.307065497378545 L0 56.66148369741209 L0 53.64723086332705 L0 37.710111533040724 L0 34.73417209636332 L0 34.08859029639686 L0 33.74216054116437 L0 33.22723562348517 L0 32.32070993442023 L0 31.548561759729303 L0 30.21308967851103 L0 28.68378555519283 L0 10.569637901861281 L0 9.290693739424734 L0 8.940190067481582 L0 8.80585649488128 L0 8.730491829930406 L0 8.704358142905713 L0 8.868091155371157 L0 9.006301676902394 L0 9.65188347686885 L0 10.513238149780538 L0 10.758916155235855 L0 11.419763838845485 L0 11.570568133818131 L0 12.19191201353641 L0 13.470856175972958 L0 15.483420063683184 L0 13.677910331405936 L0 12.360705000857047 L0 10.89646495352031 L0 9.415294343313214 L0 8.048801678962816 L0 6.918405830450931 L0 6.124547429578322 L0 5.737764279052723 L0 5.792423759168241 L0 6.283669135247427 L0 7.167851099830826 L0 29.77901861252118 L0 30.977573717886905 L0 32.38400508315078 L0 33.87334510948671 L0 35.31325939969371 L0 36.57580525012709 L0 59.21946007246211 L0 60.19245474371966 L0 60.789443389343354 L0 60.95738094832802 L0 60.681345431576034 L0 59.98586380611271 z"/>
<path fill="#bababa" stroke="#bababa" d="M0 59.2194600724621 L0 36.57580525012708 L70 36.57580525012708 L70 57.63440423489865 L70 59.2194600724621 z"/>
<path fill="#bababa" stroke="#bababa" d="M-30 5.099830795262297 L-30 -37.35702199661587 L70 -37.35702199661587 L70 5.099830795262297 z"/>
<path fill="#bababa" stroke="#bababa" d="M-30 75.75972927241963 L-30 5.099830795262291 L70 5.099830795262291 L70 75.75972927241963 z"/>
<path fill="#bababa" stroke="#bababa" d="M-30 33.30287648054148 L-30 75.75972927241965 L70 75.75972927241965 L70 33.30287648054148 z"/>
<path fill="#bababa" stroke="#bababa" d="M-30 -37.357021996615885 L-30 33.30287648054146 L70 33.30287648054146 L70 -37.357021996615885 z"/>
<path fill="#bababa" stroke="#bababa" d="M70 5.099830795262298 L70 -37.35702199661587 L70 33.302876480541485 L70 75.75972927241965 M70 53.13637901861255 L70 36.04374957698818 L70 35.954223485617625 L70 34.76480541455163 L70 34.71075504232327 L70 33.99265723986071 L70 33.929200441626165 L70 33.08613155079576 L70 33.025836723691945 L70 32.224776877884075 L70 32.17958615188642 L70 31.57919507791762 L70 31.55805903053785 L70 31.27725154392094 L70 31.284356428559228 L70 31.378749895896508 L70 31.412688503014547 L70 31.86358714043996 L70 31.95311323181052 L70 33.142531302876506 L70 32.99888561759732 L70 31.0904500846024 L70 31.00092399323184 L70 29.81150592216585 L70 29.74961318464501 L70 28.927323957582452 L70 28.892936781256907 L70 28.436078581503264 L70 28.432252417895178 L70 28.38141910138775 L70 28.40849392192454 L70 28.768202251913344 L70 28.82377233997443 L70 29.562060652785956 L70 29.641188362181786 L70 30.69245650129784 L70 30.78811098780237 L70 32.05894916564824 L70 32.16263110836273 L70 33.54011977585533 L70 33.64261657916891 L70 35.00435982319207 L70 35.09656419633049 L70 36.32156515374096 L70 37.978066059406984 L70 48.75121203574591 L70 49.83381469005859 L70 50.17998678171455 L70 55.185797847644146 L70 58.455000205706305 L70 58.48699788965549 L70 58.68693152774993 L70 58.93273266643131 L70 59.00645184620901 L70 59.98586380611271 L70 60.03454751989514 L70 60.681345431576034 L70 60.700667917748675 L70 60.95738094832802 L70 60.945625319199095 L70 60.789443389343354 L70 60.747654184149695 L70 60.19245474371966 L70 60.12434511673163 L70 59.21946007246211 L70 57.63440423489866 L70 36.57580525012709 L70 36.48742704059675 L70 35.31325939969371 L70 35.21246539937922 L70 33.87334510948671 L70 33.7690913076432 L70 32.38400508315078 L70 32.285554887582315 L70 30.977573717886905 L70 30.893674860511304 L70 29.77901861252118 L70 29.72331037805066 L70 29.00101424191377 L70 28.196236886632853 L70 27.29901101694275 L70 26.94980169464545 L70 22.61431716181416 L70 22.182704477956346 L70 16.982588688438106 L70 16.614041284795746 L70 12.173583667240655 L70 7.167851099830826 L70 7.105958362309988 L70 6.283669135247427 L70 6.249281958921884 L70 5.792423759168241 L70 5.788597595560154 L70 5.737764279052723 L70 5.764839099589515 L70 6.124547429578322 L70 6.180117517639404 L70 6.918405830450931 L70 6.997533539846763 L70 8.048801678962816 L70 8.144456165467343 L70 9.415294343313214 L70 9.51897628602771 L70 10.89646495352031 L70 10.998961756833882 L70 12.360705000857047 L70 12.45290937399547 L70 13.677910331405936 L70 13.804296012665343 L70 15.483420063683184 L70 15.342540591543468 L70 13.470856175972958 L70 13.3813300846024 L70 12.19191201353641 L70 12.148417941956131 L70 11.570568133818131 L70 11.560011833170046 L70 11.419763838845485 L70 11.37350450099281 L70 10.758916155235855 L70 10.741718694853983 L70 10.513238149780538 L70 10.45294332267672 L70 9.65188347686885 L70 9.606692750871199 L70 9.006301676902394 L70 9.006301676902394 L70 9.006301676902394 L70 9.006301676902394 L70 9.006301676902394 L70 8.996626940395206 L70 8.868091155371157 L70 8.856629844498576 L70 8.704358142905713 L70 8.70618750099744 L70 8.730491829930406 L70 8.735767356476968 L70 8.80585649488128 L70 8.8152598449633 L70 8.940190067481582 L70 8.964725324517602 L70 9.290693739424734 L70 9.380219830795292 L70 10.569637901861281 L70 11.944679526226764 L70 28.68378555519283 L70 28.790836843825105 L70 30.21308967851103 L70 30.306572724196307 L70 31.548561759729303 L70 31.602612131957667 L70 32.32070993442023 L70 32.38416673265477 L70 33.22723562348517 L70 33.22723562348517 L70 33.22723562348517 L70 33.22723562348517 L70 33.22723562348517 L70 33.263280367722714 L70 33.74216054116437 L70 33.76641062403064 L70 34.08859029639686 L70 34.08859029639686 L70 34.08859029639686 L70 34.133781022394516 L70 34.73417209636332 L70 34.94248785693073 L70 36.269083908436734 L70 37.710111533040724 L70 53.64723086332705 L70 53.858228561713005 L70 56.66148369741209 L70 56.70667442340974 L70 57.307065497378545 L70 57.328201544758315 L70 57.60900903137522 L70 57.601904146736935 L70 57.50751067939966 L70 57.47357207228161 L70 57.0226734348562 L70 56.92919038917093 L70 55.68720135363793 L70 55.581532740600665 L70 54.312159729272445 L70 54.177649738819895 L70 54.14540190715637 L70 53.721383289937 L70 53.67090397576109 z"/>
<path fill="#bababa" stroke="#bababa" d="M-30 -37.35702199661587 L-30 5.099830795262298 L-30 75.75972927241965 L-30 33.302876480541485 z"/>
<path fill="#000000" stroke="#000000" d="M1000 36.57580525012708 L0 36.57580525012708 L0 59.2194600724621 L1000 59.2194600724621 z"/>
<path fill="#000000" stroke="#000000" d="M1000 35.313259399693706 L0 35.313259399693706 L0 36.57580525012708 L1000 36.57580525012708 z"/>
<path fill="#000000" stroke="#000000" d="M1000 33.87334510948671 L0 33.87334510948671 L0 35.313259399693706 L1000 35.313259399693706 z"/>
<path fill="#000000" stroke="#000000" d="M1000 30.9775737178869 L0 30.9775737178869 L0 32.38400508315078 L1000 32.38400508315078 z"/>
<path fill="#000000" stroke="#000000" d="M1000 28.894836647937773 L0 28.894836647937773 L0 29.77901861252117 L1000 29.77901861252117 z"/>
<path fill="#000000" stroke="#000000" d="M1000 28.40359127185859 L0 28.40359127185859 L0 28.894836647937776 L1000 28.894836647937776 z"/>
<path fill="#000000" stroke="#000000" d="M1000 28.68378555519283 L0 28.68378555519283 L0 28.348931791743077 L1000 28.348931791743077 z"/>
<path fill="#000000" stroke="#000000" d="M1000 28.348931791743077 L0 28.348931791743077 L0 28.403591271858595 L1000 28.403591271858595 z"/>
<path fill="#000000" stroke="#000000" d="M0 30.213089678511018 L0 28.683785555192824 L1000 28.683785555192824 L1000 30.213089678511018 L1000 31.548561759729292 L0 31.548561759729292 z"/>
<path fill="#000000" stroke="#000000" d="M1000 29.779018612521178 L0 29.779018612521178 L0 30.9775737178869 L1000 30.9775737178869 z"/>
<path fill="#000000" stroke="#000000" d="M1000 32.32070993442022 L0 32.32070993442022 L0 31.5485617597293 L1000 31.5485617597293 z"/>
<path fill="#000000" stroke="#000000" d="M1000 33.22723562348517 L0 33.22723562348517 z"/>
<path fill="#000000" stroke="#000000" d="M1000 33.22723562348517 L0 33.22723562348517 L0 32.32070993442022 L1000 32.32070993442022 z"/>
<path fill="#000000" stroke="#000000" d="M1000 32.38400508315078 L0 32.38400508315078 L0 33.87334510948671 L1000 33.87334510948671 z"/>
<path fill="#000000" stroke="#000000" d="M1000 33.74216054116437 L0 33.74216054116437 L0 33.22723562348517 L1000 33.22723562348517 z"/>
<path fill="#000000" stroke="#000000" d="M1000 34.08859029639686 L0 34.08859029639686 L0 33.74216054116437 L1000 33.74216054116437 z"/>
<path fill="#000000" stroke="#000000" d="M1000 33.22723562348517 L0 33.22723562348517 z"/>
<path fill="#000000" stroke="#000000" d="M0 34.73417209636332 L0 34.08859029639686 L1000 34.08859029639686 L1000 34.73417209636332 L1000 56.66148369741209 L1000 57.307065497378545 L0 57.307065497378545 L0 56.66148369741209 z"/>
<path fill="#000000" stroke="#000000" d="M1000 57.60900903137522 L0 57.60900903137522 L0 57.307065497378545 L1000 57.307065497378545 z"/>
<path fill="#000000" stroke="#000000" d="M1000 57.50751067939966 L0 57.50751067939966 L0 57.60900903137522 L1000 57.60900903137522 z"/>
<path fill="#000000" stroke="#000000" d="M1000 60.95738094832802 L0 60.95738094832802 L0 60.68134543157603 L1000 60.68134543157603 z"/>
<path fill="#000000" stroke="#000000" d="M1000 60.789443389343354 L0 60.789443389343354 L0 60.95738094832802 L1000 60.95738094832802 z"/>
<path fill="#000000" stroke="#000000" d="M1000 57.022673434856195 L0 57.022673434856195 L0 57.507510679399644 L1000 57.507510679399644 z"/>
<path fill="#000000" stroke="#000000" d="M1000 59.21946007246213 L0 59.21946007246213 L0 60.19245474371967 L1000 60.19245474371967 z"/>
<path fill="#000000" stroke="#000000" d="M1000 60.19245474371967 L0 60.19245474371967 L0 60.789443389343354 L1000 60.789443389343354 z"/>
<path fill="#000000" stroke="#000000" d="M1000 54.67011667833859 L0 54.67011667833859 L0 54.17764973881989 L1000 54.17764973881989 z"/>
<path fill="#000000" stroke="#000000" d="M1000 56.15128728854569 L0 56.15128728854569 L0 54.67011667833859 L1000 54.67011667833859 z"/>
<path fill="#000000" stroke="#000000" d="M1000 60.68134543157602 L0 60.68134543157602 L0 59.9858638061127 L1000 59.9858638061127 z"/>
<path fill="#000000" stroke="#000000" d="M1000 54.177649738819866 L0 54.177649738819866 L0 55.687201353637924 L0 57.022673434856195 L1000 57.022673434856195 L1000 55.687201353637924 z"/>
<path fill="#000000" stroke="#000000" d="M1000 58.93273266643131 L0 58.93273266643131 L0 57.61552733588242 L1000 57.61552733588242 z"/>
<path fill="#000000" stroke="#000000" d="M1000 59.985863806112704 L0 59.985863806112704 L0 58.932732666431306 L1000 58.932732666431306 z"/>
<path fill="#000000" stroke="#000000" d="M1000 57.61552733588242 L0 57.61552733588242 L0 56.15128728854569 L1000 56.15128728854569 z"/>
<path fill="#000000" stroke="#000000" d="M1000 36.57580525012709 L1000 59.21946007246211 L1000 60.19245474371966 L1000 60.789443389343354 L1000 60.95738094832802 L1000 60.681345431576034 L1000 59.98586380611271 L1000 58.93273266643131 L1000 57.615527335882426 L1000 56.15128728854569 L1000 54.670116678338594 L1000 54.177649738819895 L1000 55.68720135363793 L1000 57.0226734348562 L1000 57.50751067939966 L1000 57.60900903137522 L1000 57.307065497378545 L1000 56.66148369741209 L1000 34.73417209636332 L1000 34.08859029639686 L1000 33.74216054116437 L1000 33.22723562348517 L1000 32.32070993442023 L1000 31.548561759729303 L1000 30.21308967851103 L1000 28.68378555519283 L1000 28.348931791743077 L1000 28.403591271858595 L1000 28.89483664793778 L1000 29.77901861252118 L1000 30.977573717886905 L1000 32.38400508315078 L1000 33.87334510948671 L1000 35.31325939969371 z"/>
<path fill="#000000" stroke="#000000" d="M0 59.21946007246211 L0 36.57580525012709 L0 35.31325939969371 L0 33.87334510948671 L0 32.38400508315078 L0 30.977573717886905 L0 29.77901861252118 L0 28.89483664793778 L0 28.403591271858595 L0 28.348931791743077 L0 28.68378555519283 L0 30.21308967851103 L0 31.548561759729303 L0 32.32070993442023 L0 33.22723562348517 L0 33.74216054116437 L0 34.08859029639686 L0 34.73417209636332 L0 56.66148369741209 L0 57.307065497378545 L0 57.60900903137522 L0 57.50751067939966 L0 57.0226734348562 L0 55.68720135363793 L0 54.177649738819895 L0 54.670116678338594 L0 56.15128728854569 L0 57.615527335882426 L0 58.93273266643131 L0 59.98586380611271 L0 60.681345431576034 L0 60.95738094832802 L0 60.789443389343354 L0 60.19245474371966 z"/>
<path fill="#000000" stroke="#000000" d="M1000 36.575805250127104 L0 36.575805250127104 L0 37.54879992138465 L1000 37.54879992138465 z"/>
<path fill="#000000" stroke="#000000" d="M1000 35.313259399693706 L0 35.313259399693706 L0 36.57580525012708 L1000 36.57580525012708 z"/>
<path fill="#000000" stroke="#000000" d="M1000 33.22723562348517 L0 33.22723562348517 L0 32.32070993442022 L1000 32.32070993442022 z"/>
<path fill="#000000" stroke="#000000" d="M1000 33.87334510948671 L0 33.87334510948671 L0 35.313259399693706 L1000 35.313259399693706 z"/>
<path fill="#000000" stroke="#000000" d="M1000 5.79242375916824 L0 5.79242375916824 L0 6.283669135247414 L1000 6.283669135247414 z"/>
<path fill="#000000" stroke="#000000" d="M1000 29.779018612521178 L0 29.779018612521178 L0 30.9775737178869 L1000 30.9775737178869 z"/>
<path fill="#000000" stroke="#000000" d="M1000 7.167851099830797 L0 7.167851099830797 L0 29.77901861252117 L1000 29.77901861252117 z"/>
<path fill="#000000" stroke="#000000" d="M1000 6.283669135247406 L0 6.283669135247406 L0 7.167851099830806 L1000 7.167851099830806 z"/>
<path fill="#000000" stroke="#000000" d="M1000 30.9775737178869 L0 30.9775737178869 L0 32.38400508315078 L1000 32.38400508315078 z"/>
<path fill="#000000" stroke="#000000" d="M1000 6.124547429578328 L0 6.124547429578328 L0 5.737764279052729 L1000 5.737764279052729 z"/>
<path fill="#000000" stroke="#000000" d="M1000 8.80585649488128 L0 8.80585649488128 L0 8.730491829930406 L1000 8.730491829930406 z"/>
<path fill="#000000" stroke="#000000" d="M1000 8.730491829930406 L0 8.730491829930406 L0 8.704358142905713 L1000 8.704358142905713 z"/>
<path fill="#000000" stroke="#000000" d="M1000 8.868091155371172 L0 8.868091155371172 L0 9.006301676902407 L1000 9.006301676902407 z"/>
<path fill="#000000" stroke="#000000" d="M1000 8.048801678962814 L0 8.048801678962814 L0 6.91840583045093 L1000 6.91840583045093 z"/>
<path fill="#000000" stroke="#000000" d="M1000 10.513238149780538 L0 10.513238149780538 L0 10.758916155235855 L1000 10.758916155235855 z"/>
<path fill="#000000" stroke="#000000" d="M1000 12.360705000857047 L0 12.360705000857047 L0 10.89646495352031 L1000 10.89646495352031 z"/>
<path fill="#000000" stroke="#000000" d="M1000 11.570568133818131 L0 11.570568133818131 L0 12.19191201353641 L1000 12.19191201353641 z"/>
<path fill="#000000" stroke="#000000" d="M1000 13.470856175972957 L0 13.470856175972957 L0 15.483420063683182 L1000 15.483420063683182 z"/>
<path fill="#000000" stroke="#000000" d="M1000 9.415294343313212 L0 9.415294343313212 L0 8.048801678962814 L1000 8.048801678962814 z"/>
<path fill="#000000" stroke="#000000" d="M1000 15.48342006368318 L0 15.48342006368318 L0 13.677910331405931 L1000 13.677910331405931 z"/>
<path fill="#000000" stroke="#000000" d="M1000 13.677910331405934 L0 13.677910331405934 L0 12.360705000857047 L1000 12.360705000857047 z"/>
<path fill="#000000" stroke="#000000" d="M1000 12.191912013536378 L0 12.191912013536378 L0 13.470856175972926 L1000 13.470856175972926 z"/>
<path fill="#000000" stroke="#000000" d="M1000 10.89646495352031 L0 10.89646495352031 L0 9.415294343313214 L1000 9.415294343313214 z"/>
<path fill="#000000" stroke="#000000" d="M1000 11.419763838845483 L0 11.419763838845483 L0 11.570568133818131 L1000 11.570568133818131 z"/>
<path fill="#000000" stroke="#000000" d="M1000 10.758916155235855 L0 10.758916155235855 L0 11.419763838845485 L1000 11.419763838845485 z"/>
<path fill="#000000" stroke="#000000" d="M1000 9.65188347686885 L0 9.65188347686885 L0 10.513238149780536 L1000 10.513238149780536 z"/>
<path fill="#000000" stroke="#000000" d="M1000 9.006301676902392 L0 9.006301676902392 z"/>
<path fill="#000000" stroke="#000000" d="M1000 9.006301676902394 L0 9.006301676902394 L0 9.65188347686885 L1000 9.65188347686885 z"/>
<path fill="#000000" stroke="#000000" d="M1000 6.918405830450938 L0 6.918405830450938 L0 6.124547429578328 L1000 6.124547429578328 z"/>
<path fill="#000000" stroke="#000000" d="M1000 8.704358142905713 L0 8.704358142905713 L0 8.868091155371157 L1000 8.868091155371157 z"/>
<path fill="#000000" stroke="#000000" d="M1000 9.006301676902401 L0 9.006301676902401 z"/>
<path fill="#000000" stroke="#000000" d="M1000 9.290693739424727 L0 9.290693739424727 L0 8.940190067481575 L1000 8.940190067481575 z"/>
<path fill="#000000" stroke="#000000" d="M1000 8.940190067481568 L0 8.940190067481568 L0 8.805856494881265 L1000 8.805856494881265 z"/>
<path fill="#000000" stroke="#000000" d="M1000 32.38400508315078 L0 32.38400508315078 L0 33.87334510948671 L1000 33.87334510948671 z"/>
<path fill="#000000" stroke="#000000" d="M0 10.56963790186125 L0 9.290693739424734 L1000 9.290693739424734 L1000 10.56963790186125 L1000 30.213089678511018 L1000 31.548561759729292 L0 31.548561759729292 L0 30.213089678511018 z"/>
<path fill="#000000" stroke="#000000" d="M1000 5.737764279052722 L0 5.737764279052722 L0 5.792423759168239 L1000 5.792423759168239 z"/>
<path fill="#000000" stroke="#000000" d="M1000 32.32070993442022 L0 32.32070993442022 L0 31.5485617597293 L1000 31.5485617597293 z"/>
<path fill="#000000" stroke="#000000" d="M1000 33.22723562348517 L0 33.22723562348517 z"/>
<path fill="#000000" stroke="#000000" d="M1000 33.74216054116437 L0 33.74216054116437 L0 33.22723562348517 L1000 33.22723562348517 z"/>
<path fill="#000000" stroke="#000000" d="M1000 34.08859029639686 L0 34.08859029639686 L0 33.74216054116437 L1000 33.74216054116437 z"/>
<path fill="#000000" stroke="#000000" d="M1000 33.22723562348517 L0 33.22723562348517 z"/>
<path fill="#000000" stroke="#000000" d="M1000 37.548799921384635 L0 37.548799921384635 L0 38.14578856700834 L1000 38.14578856700834 z"/>
<path fill="#000000" stroke="#000000" d="M0 34.08859029639686 L1000 34.08859029639686 L1000 34.73417209636332 L1000 37.710111533040724 L0 37.710111533040724 L0 34.73417209636332 z"/>
<path fill="#000000" stroke="#000000" d="M1000 38.14578856700833 L0 38.14578856700833 L0 38.313726125993 L1000 38.313726125993 z"/>
<path fill="#000000" stroke="#000000" d="M1000 38.037690609241004 L0 38.037690609241004 L0 37.71011153304072 L1000 37.71011153304072 z"/>
<path fill="#000000" stroke="#000000" d="M1000 38.313726125993 L0 38.313726125993 L0 38.03769060924101 L1000 38.03769060924101 z"/>
<path fill="#000000" stroke="#000000" d="M1000 36.57580525012709 L1000 37.548799921384635 L1000 38.14578856700833 L1000 38.313726125993 L1000 38.03769060924101 L1000 37.710111533040724 L1000 34.73417209636332 L1000 34.08859029639686 L1000 33.74216054116437 L1000 33.22723562348517 L1000 32.32070993442023 L1000 31.548561759729303 L1000 30.21308967851103 L1000 10.569637901861281 L1000 9.290693739424734 L1000 8.940190067481582 L1000 8.80585649488128 L1000 8.730491829930406 L1000 8.704358142905713 L1000 8.868091155371157 L1000 9.006301676902394 L1000 9.65188347686885 L1000 10.513238149780538 L1000 10.758916155235855 L1000 11.419763838845485 L1000 11.570568133818131 L1000 12.19191201353641 L1000 13.470856175972958 L1000 15.483420063683184 L1000 13.677910331405936 L1000 12.360705000857047 L1000 10.89646495352031 L1000 9.415294343313214 L1000 8.048801678962816 L1000 6.918405830450931 L1000 6.124547429578322 L1000 5.737764279052723 L1000 5.792423759168241 L1000 6.283669135247427 L1000 7.167851099830826 L1000 29.77901861252118 L1000 30.977573717886905 L1000 32.38400508315078 L1000 33.87334510948671 L1000 35.31325939969371 z"/>
<path fill="#000000" stroke="#000000" d="M0 37.548799921384635 L0 36.57580525012709 L0 35.31325939969371 L0 33.87334510948671 L0 32.38400508315078 L0 30.977573717886905 L0 29.77901861252118 L0 7.167851099830826 L0 6.283669135247427 L0 5.792423759168241 L0 5.737764279052723 L0 6.124547429578322 L0 6.918405830450931 L0 8.048801678962816 L0 9.415294343313214 L0 10.89646495352031 L0 12.360705000857047 L0 13.677910331405936 L0 15.483420063683184 L0 13.470856175972958 L0 12.19191201353641 L0 11.570568133818131 L0 11.419763838845485 L0 10.758916155235855 L0 10.513238149780538 L0 9.65188347686885 L0 9.006301676902394 L0 8.868091155371157 L0 8.704358142905713 L0 8.730491829930406 L0 8.80585649488128 L0 8.940190067481582 L0 9.290693739424734 L0 10.569637901861281 L0 30.21308967851103 L0 31.548561759729303 L0 32.32070993442023 L0 33.22723562348517 L0 33.74216054116437 L0 34.08859029639686 L0 34.73417209636332 L0 37.710111533040724 L0 38.03769060924101 L0 38.313726125993 L0 38.14578856700833 z"/>
<path fill="#000000" stroke="#000000" d="M1000 59.21946007246213 L0 59.21946007246213 L0 60.19245474371967 L1000 60.19245474371967 z"/>
<path fill="#000000" stroke="#000000" d="M1000 57.95691422202873 L0 57.95691422202873 L0 59.219460072462105 L1000 59.219460072462105 z"/>
<path fill="#000000" stroke="#000000" d="M1000 60.19245474371967 L0 60.19245474371967 L0 60.789443389343354 L1000 60.789443389343354 z"/>
<path fill="#000000" stroke="#000000" d="M1000 56.51699993182174 L0 56.51699993182174 L0 57.95691422202873 L1000 57.95691422202873 z"/>
<path fill="#000000" stroke="#000000" d="M1000 60.789443389343354 L0 60.789443389343354 L0 60.95738094832802 L1000 60.95738094832802 z"/>
<path fill="#000000" stroke="#000000" d="M1000 55.027659905485805 L0 55.027659905485805 L0 56.516999931821736 L1000 56.516999931821736 z"/>
<path fill="#000000" stroke="#000000" d="M1000 60.95738094832802 L0 60.95738094832802 L0 60.68134543157603 L1000 60.68134543157603 z"/>
<path fill="#000000" stroke="#000000" d="M1000 60.68134543157602 L0 60.68134543157602 L0 59.9858638061127 L1000 59.9858638061127 z"/>
<path fill="#000000" stroke="#000000" d="M1000 57.022673434856195 L0 57.022673434856195 L0 57.507510679399644 L1000 57.507510679399644 z"/>
<path fill="#000000" stroke="#000000" d="M1000 59.9858638061127 L0 59.9858638061127 L0 36.32156515374094 L1000 36.32156515374094 z"/>
<path fill="#000000" stroke="#000000" d="M1000 33.992657239860705 L0 33.992657239860705 L0 34.76480541455163 L1000 34.76480541455163 z"/>
<path fill="#000000" stroke="#000000" d="M1000 36.321565153740956 L0 36.321565153740956 L0 35.00435982319207 L1000 35.00435982319207 z"/>
<path fill="#000000" stroke="#000000" d="M1000 28.436078581503253 L0 28.436078581503253 L0 28.927323957582438 L1000 28.927323957582438 z"/>
<path fill="#000000" stroke="#000000" d="M1000 33.086131550795756 L0 33.086131550795756 L0 33.992657239860705 L1000 33.992657239860705 z"/>
<path fill="#000000" stroke="#000000" d="M1000 31.378749895896505 L0 31.378749895896505 L0 31.277251543920936 L1000 31.277251543920936 z"/>
<path fill="#000000" stroke="#000000" d="M1000 32.22477687788407 L0 32.22477687788407 L0 33.086131550795756 L1000 33.086131550795756 z"/>
<path fill="#000000" stroke="#000000" d="M1000 28.92732395758243 L0 28.92732395758243 L0 29.811505922165832 L1000 29.811505922165832 z"/>
<path fill="#000000" stroke="#000000" d="M1000 29.811505922165814 L0 29.811505922165814 L0 31.090450084602363 L1000 31.090450084602363 z"/>
<path fill="#000000" stroke="#000000" d="M1000 57.60900903137522 L0 57.60900903137522 L0 57.307065497378545 L1000 57.307065497378545 z"/>
<path fill="#000000" stroke="#000000" d="M1000 33.142531302876485 L0 33.142531302876485 L0 31.863587140439936 L1000 31.863587140439936 z"/>
<path fill="#000000" stroke="#000000" d="M1000 31.090450084602395 L0 31.090450084602395 L0 33.142531302876506 L1000 33.142531302876506 z"/>
<path fill="#000000" stroke="#000000" d="M1000 31.863587140439957 L0 31.863587140439957 L0 31.378749895896505 L1000 31.378749895896505 z"/>
<path fill="#000000" stroke="#000000" d="M1000 31.579195077917618 L0 31.579195077917618 L0 32.22477687788407 L1000 32.22477687788407 z"/>
<path fill="#000000" stroke="#000000" d="M1000 31.277251543920947 L0 31.277251543920947 L0 31.57919507791763 L1000 31.57919507791763 z"/>
<path fill="#000000" stroke="#000000" d="M1000 35.00435982319207 L0 35.00435982319207 L0 33.54011977585533 L1000 33.54011977585533 z"/>
<path fill="#000000" stroke="#000000" d="M1000 28.38141910138775 L0 28.38141910138775 L0 28.436078581503264 L1000 28.436078581503264 z"/>
<path fill="#000000" stroke="#000000" d="M1000 28.768202251913348 L0 28.768202251913348 L0 28.381419101387753 L1000 28.381419101387753 z"/>
<path fill="#000000" stroke="#000000" d="M1000 32.05894916564824 L0 32.05894916564824 L0 30.692456501297837 L1000 30.692456501297837 z"/>
<path fill="#000000" stroke="#000000" d="M1000 29.56206065278596 L0 29.56206065278596 L0 28.768202251913348 L1000 28.768202251913348 z"/>
<path fill="#000000" stroke="#000000" d="M1000 30.69245650129784 L0 30.69245650129784 L0 29.562060652785956 L1000 29.562060652785956 z"/>
<path fill="#000000" stroke="#000000" d="M1000 33.54011977585533 L0 33.54011977585533 L0 32.05894916564823 L1000 32.05894916564823 z"/>
<path fill="#000000" stroke="#000000" d="M1000 57.50751067939966 L0 57.50751067939966 L0 57.60900903137522 L1000 57.60900903137522 z"/>
<path fill="#000000" stroke="#000000" d="M1000 34.7648054145516 L0 34.7648054145516 L0 36.043749576988155 L0 55.687201353637924 L0 57.022673434856195 L1000 57.022673434856195 L1000 55.687201353637924 L1000 36.043749576988155 z"/>
<path fill="#000000" stroke="#000000" d="M1000 57.30706549737854 L0 57.30706549737854 L0 56.66148369741209 L0 53.64723086332705 L1000 53.64723086332705 L1000 56.66148369741209 z"/>
<path fill="#000000" stroke="#000000" d="M1000 53.647230863327046 L0 53.647230863327046 L0 55.027659905485805 L1000 55.027659905485805 z"/>
<path fill="#000000" stroke="#000000" d="M1000 59.21946007246211 L1000 60.19245474371966 L1000 60.789443389343354 L1000 60.95738094832802 L1000 60.681345431576034 L1000 59.98586380611271 L1000 36.32156515374096 L1000 35.00435982319207 L1000 33.54011977585533 L1000 32.05894916564824 L1000 30.69245650129784 L1000 29.562060652785956 L1000 28.768202251913344 L1000 28.38141910138775 L1000 28.436078581503264 L1000 28.927323957582452 L1000 29.81150592216585 L1000 31.0904500846024 L1000 33.142531302876506 L1000 31.86358714043996 L1000 31.378749895896508 L1000 31.27725154392094 L1000 31.57919507791762 L1000 32.224776877884075 L1000 33.08613155079576 L1000 33.99265723986071 L1000 34.76480541455163 L1000 36.04374957698818 L1000 55.68720135363793 L1000 57.0226734348562 L1000 57.50751067939966 L1000 57.60900903137522 L1000 57.307065497378545 L1000 56.66148369741209 L1000 53.64723086332705 L1000 55.02765990548581 L1000 56.51699993182174 L1000 57.956914222028736 z"/>
<path fill="#000000" stroke="#000000" d="M0 59.21946007246211 L0 57.956914222028736 L0 56.51699993182174 L0 55.02765990548581 L0 53.64723086332705 L0 56.66148369741209 L0 57.307065497378545 L0 57.60900903137522 L0 57.50751067939966 L0 57.0226734348562 L0 55.68720135363793 L0 36.04374957698818 L0 34.76480541455163 L0 33.99265723986071 L0 33.08613155079576 L0 32.224776877884075 L0 31.57919507791762 L0 31.27725154392094 L0 31.378749895896508 L0 31.86358714043996 L0 33.142531302876506 L0 31.0904500846024 L0 29.81150592216585 L0 28.927323957582452 L0 28.436078581503264 L0 28.38141910138775 L0 28.768202251913344 L0 29.562060652785956 L0 30.69245650129784 L0 32.05894916564824 L0 33.54011977585533 L0 35.00435982319207 L0 36.32156515374096 L0 59.98586380611271 L0 60.681345431576034 L0 60.95738094832802 L0 60.789443389343354 L0 60.19245474371966 z"/>
</svg>